<svg xmlns="http://www.w3.org/2000/svg" width="737" height="143" viewBox="0 0 737 143">
  <rect width="737" height="143" rx="10" fill="transparent"/>
  <text x="80" y="24" font-size="9" fill="#FFFFFF" font-family="monospace">Jul</text><text x="132" y="24" font-size="9" fill="#FFFFFF" font-family="monospace">Aug</text><text x="197" y="24" font-size="9" fill="#FFFFFF" font-family="monospace">Sep</text><text x="249" y="24" font-size="9" fill="#FFFFFF" font-family="monospace">Oct</text><text x="301" y="24" font-size="9" fill="#FFFFFF" font-family="monospace">Nov</text><text x="366" y="24" font-size="9" fill="#FFFFFF" font-family="monospace">Dec</text><text x="418" y="24" font-size="9" fill="#FFFFFF" font-family="monospace">Jan</text><text x="470" y="24" font-size="9" fill="#FFFFFF" font-family="monospace">Feb</text><text x="522" y="24" font-size="9" fill="#FFFFFF" font-family="monospace">Mar</text><text x="587" y="24" font-size="9" fill="#FFFFFF" font-family="monospace">Apr</text><text x="639" y="24" font-size="9" fill="#FFFFFF" font-family="monospace">May</text><text x="704" y="24" font-size="9" fill="#FFFFFF" font-family="monospace">Jun</text>
  <text x="24" y="54" font-size="8" fill="#FFFFFF" font-family="monospace" text-anchor="end">Mon</text><text x="24" y="80" font-size="8" fill="#FFFFFF" font-family="monospace" text-anchor="end">Wed</text><text x="24" y="106" font-size="8" fill="#FFFFFF" font-family="monospace" text-anchor="end">Fri</text>
  <rect x="28" y="32" width="11" height="11" rx="2" fill="transparent" stroke="#8F7BE8" stroke-width="0.8"/><rect x="28" y="45" width="11" height="11" rx="2" fill="transparent" stroke="#8F7BE8" stroke-width="0.8"/><rect x="28" y="58" width="11" height="11" rx="2" fill="transparent" stroke="#8F7BE8" stroke-width="0.8"/><rect x="28" y="71" width="11" height="11" rx="2" fill="transparent" stroke="#8F7BE8" stroke-width="0.8"/><rect x="28" y="84" width="11" height="11" rx="2" fill="transparent" stroke="#8F7BE8" stroke-width="0.8"/><rect x="28" y="97" width="11" height="11" rx="2" fill="transparent" stroke="#8F7BE8" stroke-width="0.8"/><rect x="28" y="110" width="11" height="11" rx="2" fill="transparent" stroke="#8F7BE8" stroke-width="0.8"/><rect x="41" y="32" width="11" height="11" rx="2" fill="transparent" stroke="#8F7BE8" stroke-width="0.8"/><rect x="41" y="45" width="11" height="11" rx="2" fill="transparent" stroke="#8F7BE8" stroke-width="0.8"/><rect x="41" y="58" width="11" height="11" rx="2" fill="transparent" stroke="#8F7BE8" stroke-width="0.8"/><rect x="41" y="71" width="11" height="11" rx="2" fill="transparent" stroke="#8F7BE8" stroke-width="0.8"/><rect x="41" y="84" width="11" height="11" rx="2" fill="transparent" stroke="#8F7BE8" stroke-width="0.8"/><rect x="41" y="97" width="11" height="11" rx="2" fill="transparent" stroke="#8F7BE8" stroke-width="0.8"/><rect x="41" y="110" width="11" height="11" rx="2" fill="transparent" stroke="#8F7BE8" stroke-width="0.8"/><rect x="54" y="32" width="11" height="11" rx="2" fill="transparent" stroke="#8F7BE8" stroke-width="0.8"/><rect x="54" y="45" width="11" height="11" rx="2" fill="transparent" stroke="#8F7BE8" stroke-width="0.8"/><rect x="54" y="58" width="11" height="11" rx="2" fill="transparent" stroke="#8F7BE8" stroke-width="0.8"/><rect x="54" y="71" width="11" height="11" rx="2" fill="transparent" stroke="#8F7BE8" stroke-width="0.8"/><rect x="54" y="84" width="11" height="11" rx="2" fill="transparent" stroke="#8F7BE8" stroke-width="0.8"/><rect x="54" y="97" width="11" height="11" rx="2" fill="transparent" stroke="#8F7BE8" stroke-width="0.8"/><rect x="54" y="110" width="11" height="11" rx="2" fill="transparent" stroke="#8F7BE8" stroke-width="0.8"/><rect x="67" y="32" width="11" height="11" rx="2" fill="transparent" stroke="#8F7BE8" stroke-width="0.8"/><rect x="67" y="45" width="11" height="11" rx="2" fill="transparent" stroke="#8F7BE8" stroke-width="0.8"/><rect x="67" y="58" width="11" height="11" rx="2" fill="transparent" stroke="#8F7BE8" stroke-width="0.8"/><rect x="67" y="71" width="11" height="11" rx="2" fill="transparent" stroke="#8F7BE8" stroke-width="0.8"/><rect x="67" y="84" width="11" height="11" rx="2" fill="transparent" stroke="#8F7BE8" stroke-width="0.8"/><rect x="67" y="97" width="11" height="11" rx="2" fill="transparent" stroke="#8F7BE8" stroke-width="0.8"/><rect x="67" y="110" width="11" height="11" rx="2" fill="transparent" stroke="#8F7BE8" stroke-width="0.8"/><rect x="80" y="32" width="11" height="11" rx="2" fill="transparent" stroke="#8F7BE8" stroke-width="0.8"/><rect x="80" y="45" width="11" height="11" rx="2" fill="transparent" stroke="#8F7BE8" stroke-width="0.8"/><rect x="80" y="58" width="11" height="11" rx="2" fill="transparent" stroke="#8F7BE8" stroke-width="0.8"/><rect x="80" y="71" width="11" height="11" rx="2" fill="transparent" stroke="#8F7BE8" stroke-width="0.8"/><rect x="80" y="84" width="11" height="11" rx="2" fill="transparent" stroke="#8F7BE8" stroke-width="0.8"/><rect x="80" y="97" width="11" height="11" rx="2" fill="transparent" stroke="#8F7BE8" stroke-width="0.8"/><rect x="80" y="110" width="11" height="11" rx="2" fill="transparent" stroke="#8F7BE8" stroke-width="0.8"/><rect x="93" y="32" width="11" height="11" rx="2" fill="transparent" stroke="#8F7BE8" stroke-width="0.8"/><rect x="93" y="45" width="11" height="11" rx="2" fill="transparent" stroke="#8F7BE8" stroke-width="0.8"/><rect x="93" y="58" width="11" height="11" rx="2" fill="transparent" stroke="#8F7BE8" stroke-width="0.8"/><rect x="93" y="71" width="11" height="11" rx="2" fill="transparent" stroke="#8F7BE8" stroke-width="0.8"/><rect x="93" y="84" width="11" height="11" rx="2" fill="transparent" stroke="#8F7BE8" stroke-width="0.8"/><rect x="93" y="97" width="11" height="11" rx="2" fill="transparent" stroke="#8F7BE8" stroke-width="0.8"/><rect x="93" y="110" width="11" height="11" rx="2" fill="transparent" stroke="#8F7BE8" stroke-width="0.8"/><rect x="106" y="32" width="11" height="11" rx="2" fill="transparent" stroke="#8F7BE8" stroke-width="0.8"/><rect x="106" y="45" width="11" height="11" rx="2" fill="transparent" stroke="#8F7BE8" stroke-width="0.8"/><rect x="106" y="58" width="11" height="11" rx="2" fill="transparent" stroke="#8F7BE8" stroke-width="0.8"/><rect x="106" y="71" width="11" height="11" rx="2" fill="transparent" stroke="#8F7BE8" stroke-width="0.8"/><rect x="106" y="84" width="11" height="11" rx="2" fill="transparent" stroke="#8F7BE8" stroke-width="0.8"/><rect x="106" y="97" width="11" height="11" rx="2" fill="transparent" stroke="#8F7BE8" stroke-width="0.8"/><rect x="106" y="110" width="11" height="11" rx="2" fill="transparent" stroke="#8F7BE8" stroke-width="0.8"/><rect x="119" y="32" width="11" height="11" rx="2" fill="transparent" stroke="#8F7BE8" stroke-width="0.8"/><rect x="119" y="45" width="11" height="11" rx="2" fill="transparent" stroke="#8F7BE8" stroke-width="0.8"/><rect x="119" y="58" width="11" height="11" rx="2" fill="transparent" stroke="#8F7BE8" stroke-width="0.8"/><rect x="119" y="71" width="11" height="11" rx="2" fill="transparent" stroke="#8F7BE8" stroke-width="0.8"/><rect x="119" y="84" width="11" height="11" rx="2" fill="transparent" stroke="#8F7BE8" stroke-width="0.8"/><rect x="119" y="97" width="11" height="11" rx="2" fill="transparent" stroke="#8F7BE8" stroke-width="0.8"/><rect x="119" y="110" width="11" height="11" rx="2" fill="transparent" stroke="#8F7BE8" stroke-width="0.8"/><rect x="132" y="32" width="11" height="11" rx="2" fill="transparent" stroke="#8F7BE8" stroke-width="0.8"/><rect x="132" y="45" width="11" height="11" rx="2" fill="transparent" stroke="#8F7BE8" stroke-width="0.8"/><rect x="132" y="58" width="11" height="11" rx="2" fill="transparent" stroke="#8F7BE8" stroke-width="0.8"/><rect x="132" y="71" width="11" height="11" rx="2" fill="transparent" stroke="#8F7BE8" stroke-width="0.8"/><rect x="132" y="84" width="11" height="11" rx="2" fill="transparent" stroke="#8F7BE8" stroke-width="0.8"/><rect x="132" y="97" width="11" height="11" rx="2" fill="transparent" stroke="#8F7BE8" stroke-width="0.8"/><rect x="132" y="110" width="11" height="11" rx="2" fill="transparent" stroke="#8F7BE8" stroke-width="0.8"/><rect x="145" y="32" width="11" height="11" rx="2" fill="transparent" stroke="#8F7BE8" stroke-width="0.8"/><rect x="145" y="45" width="11" height="11" rx="2" fill="transparent" stroke="#8F7BE8" stroke-width="0.8"/><rect x="145" y="58" width="11" height="11" rx="2" fill="transparent" stroke="#8F7BE8" stroke-width="0.8"/><rect x="145" y="71" width="11" height="11" rx="2" fill="transparent" stroke="#8F7BE8" stroke-width="0.8"/><rect x="145" y="84" width="11" height="11" rx="2" fill="transparent" stroke="#8F7BE8" stroke-width="0.8"/><rect x="145" y="97" width="11" height="11" rx="2" fill="transparent" stroke="#8F7BE8" stroke-width="0.8"/><rect x="145" y="110" width="11" height="11" rx="2" fill="transparent" stroke="#8F7BE8" stroke-width="0.8"/><rect x="158" y="32" width="11" height="11" rx="2" fill="transparent" stroke="#8F7BE8" stroke-width="0.8"/><g transform="translate(163.5,50.5)"><ellipse cx="0" cy="-3.2" rx="2.2" ry="3.5" fill="#FFC1D6" transform="rotate(0)"/><ellipse cx="0" cy="-3.2" rx="2.2" ry="3.5" fill="#FFC1D6" transform="rotate(72)"/><ellipse cx="0" cy="-3.2" rx="2.2" ry="3.5" fill="#FFC1D6" transform="rotate(144)"/><ellipse cx="0" cy="-3.2" rx="2.2" ry="3.5" fill="#FFC1D6" transform="rotate(216)"/><ellipse cx="0" cy="-3.2" rx="2.2" ry="3.5" fill="#FFC1D6" transform="rotate(288)"/><circle cx="0" cy="0" r="1.8" fill="#FFD978"/></g><rect x="158" y="58" width="11" height="11" rx="2" fill="transparent" stroke="#8F7BE8" stroke-width="0.8"/><rect x="158" y="71" width="11" height="11" rx="2" fill="transparent" stroke="#8F7BE8" stroke-width="0.8"/><rect x="158" y="84" width="11" height="11" rx="2" fill="transparent" stroke="#8F7BE8" stroke-width="0.8"/><rect x="158" y="97" width="11" height="11" rx="2" fill="transparent" stroke="#8F7BE8" stroke-width="0.8"/><rect x="158" y="110" width="11" height="11" rx="2" fill="transparent" stroke="#8F7BE8" stroke-width="0.8"/><rect x="171" y="32" width="11" height="11" rx="2" fill="transparent" stroke="#8F7BE8" stroke-width="0.8"/><rect x="171" y="45" width="11" height="11" rx="2" fill="transparent" stroke="#8F7BE8" stroke-width="0.8"/><rect x="171" y="58" width="11" height="11" rx="2" fill="transparent" stroke="#8F7BE8" stroke-width="0.8"/><rect x="171" y="71" width="11" height="11" rx="2" fill="transparent" stroke="#8F7BE8" stroke-width="0.8"/><rect x="171" y="84" width="11" height="11" rx="2" fill="transparent" stroke="#8F7BE8" stroke-width="0.8"/><rect x="171" y="97" width="11" height="11" rx="2" fill="transparent" stroke="#8F7BE8" stroke-width="0.8"/><rect x="171" y="110" width="11" height="11" rx="2" fill="transparent" stroke="#8F7BE8" stroke-width="0.8"/><rect x="184" y="32" width="11" height="11" rx="2" fill="transparent" stroke="#8F7BE8" stroke-width="0.8"/><rect x="184" y="45" width="11" height="11" rx="2" fill="transparent" stroke="#8F7BE8" stroke-width="0.8"/><rect x="184" y="58" width="11" height="11" rx="2" fill="transparent" stroke="#8F7BE8" stroke-width="0.8"/><rect x="184" y="71" width="11" height="11" rx="2" fill="transparent" stroke="#8F7BE8" stroke-width="0.8"/><g transform="translate(189.5,89.5)"><ellipse cx="0" cy="-3.2" rx="2.2" ry="3.5" fill="#FF8FBE" transform="rotate(0)"/><ellipse cx="0" cy="-3.2" rx="2.2" ry="3.5" fill="#FF8FBE" transform="rotate(72)"/><ellipse cx="0" cy="-3.2" rx="2.2" ry="3.5" fill="#FF8FBE" transform="rotate(144)"/><ellipse cx="0" cy="-3.2" rx="2.2" ry="3.5" fill="#FF8FBE" transform="rotate(216)"/><ellipse cx="0" cy="-3.2" rx="2.2" ry="3.5" fill="#FF8FBE" transform="rotate(288)"/><circle cx="0" cy="0" r="1.8" fill="#FFC857"/></g><rect x="184" y="97" width="11" height="11" rx="2" fill="transparent" stroke="#8F7BE8" stroke-width="0.8"/><rect x="184" y="110" width="11" height="11" rx="2" fill="transparent" stroke="#8F7BE8" stroke-width="0.8"/><rect x="197" y="32" width="11" height="11" rx="2" fill="transparent" stroke="#8F7BE8" stroke-width="0.8"/><rect x="197" y="45" width="11" height="11" rx="2" fill="transparent" stroke="#8F7BE8" stroke-width="0.8"/><rect x="197" y="58" width="11" height="11" rx="2" fill="transparent" stroke="#8F7BE8" stroke-width="0.8"/><rect x="197" y="71" width="11" height="11" rx="2" fill="transparent" stroke="#8F7BE8" stroke-width="0.8"/><rect x="197" y="84" width="11" height="11" rx="2" fill="transparent" stroke="#8F7BE8" stroke-width="0.8"/><rect x="197" y="97" width="11" height="11" rx="2" fill="transparent" stroke="#8F7BE8" stroke-width="0.8"/><rect x="197" y="110" width="11" height="11" rx="2" fill="transparent" stroke="#8F7BE8" stroke-width="0.8"/><rect x="210" y="32" width="11" height="11" rx="2" fill="transparent" stroke="#8F7BE8" stroke-width="0.8"/><rect x="210" y="45" width="11" height="11" rx="2" fill="transparent" stroke="#8F7BE8" stroke-width="0.8"/><rect x="210" y="58" width="11" height="11" rx="2" fill="transparent" stroke="#8F7BE8" stroke-width="0.8"/><rect x="210" y="71" width="11" height="11" rx="2" fill="transparent" stroke="#8F7BE8" stroke-width="0.8"/><rect x="210" y="84" width="11" height="11" rx="2" fill="transparent" stroke="#8F7BE8" stroke-width="0.8"/><rect x="210" y="97" width="11" height="11" rx="2" fill="transparent" stroke="#8F7BE8" stroke-width="0.8"/><rect x="210" y="110" width="11" height="11" rx="2" fill="transparent" stroke="#8F7BE8" stroke-width="0.8"/><rect x="223" y="32" width="11" height="11" rx="2" fill="transparent" stroke="#8F7BE8" stroke-width="0.8"/><rect x="223" y="45" width="11" height="11" rx="2" fill="transparent" stroke="#8F7BE8" stroke-width="0.8"/><rect x="223" y="58" width="11" height="11" rx="2" fill="transparent" stroke="#8F7BE8" stroke-width="0.8"/><rect x="223" y="71" width="11" height="11" rx="2" fill="transparent" stroke="#8F7BE8" stroke-width="0.8"/><rect x="223" y="84" width="11" height="11" rx="2" fill="transparent" stroke="#8F7BE8" stroke-width="0.8"/><rect x="223" y="97" width="11" height="11" rx="2" fill="transparent" stroke="#8F7BE8" stroke-width="0.8"/><rect x="223" y="110" width="11" height="11" rx="2" fill="transparent" stroke="#8F7BE8" stroke-width="0.8"/><rect x="236" y="32" width="11" height="11" rx="2" fill="transparent" stroke="#8F7BE8" stroke-width="0.8"/><rect x="236" y="45" width="11" height="11" rx="2" fill="transparent" stroke="#8F7BE8" stroke-width="0.8"/><rect x="236" y="58" width="11" height="11" rx="2" fill="transparent" stroke="#8F7BE8" stroke-width="0.8"/><rect x="236" y="71" width="11" height="11" rx="2" fill="transparent" stroke="#8F7BE8" stroke-width="0.8"/><rect x="236" y="84" width="11" height="11" rx="2" fill="transparent" stroke="#8F7BE8" stroke-width="0.8"/><rect x="236" y="97" width="11" height="11" rx="2" fill="transparent" stroke="#8F7BE8" stroke-width="0.8"/><rect x="236" y="110" width="11" height="11" rx="2" fill="transparent" stroke="#8F7BE8" stroke-width="0.8"/><rect x="249" y="32" width="11" height="11" rx="2" fill="transparent" stroke="#8F7BE8" stroke-width="0.8"/><g transform="translate(254.5,50.5)"><ellipse cx="0" cy="-3.2" rx="2.2" ry="3.5" fill="#FFC1D6" transform="rotate(0)"/><ellipse cx="0" cy="-3.2" rx="2.2" ry="3.5" fill="#FFC1D6" transform="rotate(72)"/><ellipse cx="0" cy="-3.2" rx="2.2" ry="3.5" fill="#FFC1D6" transform="rotate(144)"/><ellipse cx="0" cy="-3.2" rx="2.2" ry="3.5" fill="#FFC1D6" transform="rotate(216)"/><ellipse cx="0" cy="-3.2" rx="2.2" ry="3.5" fill="#FFC1D6" transform="rotate(288)"/><circle cx="0" cy="0" r="1.8" fill="#FFD978"/></g><rect x="249" y="58" width="11" height="11" rx="2" fill="transparent" stroke="#8F7BE8" stroke-width="0.8"/><rect x="249" y="71" width="11" height="11" rx="2" fill="transparent" stroke="#8F7BE8" stroke-width="0.8"/><rect x="249" y="84" width="11" height="11" rx="2" fill="transparent" stroke="#8F7BE8" stroke-width="0.8"/><rect x="249" y="97" width="11" height="11" rx="2" fill="transparent" stroke="#8F7BE8" stroke-width="0.8"/><g transform="translate(254.5,115.5)"><ellipse cx="0" cy="-3.2" rx="2.2" ry="3.5" fill="#FF6FA3" transform="rotate(0)"/><ellipse cx="0" cy="-3.2" rx="2.2" ry="3.5" fill="#FF6FA3" transform="rotate(72)"/><ellipse cx="0" cy="-3.2" rx="2.2" ry="3.5" fill="#FF6FA3" transform="rotate(144)"/><ellipse cx="0" cy="-3.2" rx="2.2" ry="3.5" fill="#FF6FA3" transform="rotate(216)"/><ellipse cx="0" cy="-3.2" rx="2.2" ry="3.5" fill="#FF6FA3" transform="rotate(288)"/><circle cx="0" cy="0" r="1.8" fill="#FFB347"/></g><rect x="262" y="32" width="11" height="11" rx="2" fill="transparent" stroke="#8F7BE8" stroke-width="0.8"/><rect x="262" y="45" width="11" height="11" rx="2" fill="transparent" stroke="#8F7BE8" stroke-width="0.8"/><rect x="262" y="58" width="11" height="11" rx="2" fill="transparent" stroke="#8F7BE8" stroke-width="0.8"/><rect x="262" y="71" width="11" height="11" rx="2" fill="transparent" stroke="#8F7BE8" stroke-width="0.8"/><rect x="262" y="84" width="11" height="11" rx="2" fill="transparent" stroke="#8F7BE8" stroke-width="0.8"/><rect x="262" y="97" width="11" height="11" rx="2" fill="transparent" stroke="#8F7BE8" stroke-width="0.8"/><rect x="262" y="110" width="11" height="11" rx="2" fill="transparent" stroke="#8F7BE8" stroke-width="0.8"/><rect x="275" y="32" width="11" height="11" rx="2" fill="transparent" stroke="#8F7BE8" stroke-width="0.8"/><rect x="275" y="45" width="11" height="11" rx="2" fill="transparent" stroke="#8F7BE8" stroke-width="0.8"/><rect x="275" y="58" width="11" height="11" rx="2" fill="transparent" stroke="#8F7BE8" stroke-width="0.8"/><rect x="275" y="71" width="11" height="11" rx="2" fill="transparent" stroke="#8F7BE8" stroke-width="0.8"/><rect x="275" y="84" width="11" height="11" rx="2" fill="transparent" stroke="#8F7BE8" stroke-width="0.8"/><rect x="275" y="97" width="11" height="11" rx="2" fill="transparent" stroke="#8F7BE8" stroke-width="0.8"/><rect x="275" y="110" width="11" height="11" rx="2" fill="transparent" stroke="#8F7BE8" stroke-width="0.8"/><rect x="288" y="32" width="11" height="11" rx="2" fill="transparent" stroke="#8F7BE8" stroke-width="0.8"/><rect x="288" y="45" width="11" height="11" rx="2" fill="transparent" stroke="#8F7BE8" stroke-width="0.8"/><rect x="288" y="58" width="11" height="11" rx="2" fill="transparent" stroke="#8F7BE8" stroke-width="0.8"/><rect x="288" y="71" width="11" height="11" rx="2" fill="transparent" stroke="#8F7BE8" stroke-width="0.8"/><rect x="288" y="84" width="11" height="11" rx="2" fill="transparent" stroke="#8F7BE8" stroke-width="0.8"/><rect x="288" y="97" width="11" height="11" rx="2" fill="transparent" stroke="#8F7BE8" stroke-width="0.8"/><rect x="288" y="110" width="11" height="11" rx="2" fill="transparent" stroke="#8F7BE8" stroke-width="0.8"/><rect x="301" y="32" width="11" height="11" rx="2" fill="transparent" stroke="#8F7BE8" stroke-width="0.8"/><rect x="301" y="45" width="11" height="11" rx="2" fill="transparent" stroke="#8F7BE8" stroke-width="0.8"/><rect x="301" y="58" width="11" height="11" rx="2" fill="transparent" stroke="#8F7BE8" stroke-width="0.8"/><rect x="301" y="71" width="11" height="11" rx="2" fill="transparent" stroke="#8F7BE8" stroke-width="0.8"/><rect x="301" y="84" width="11" height="11" rx="2" fill="transparent" stroke="#8F7BE8" stroke-width="0.8"/><rect x="301" y="97" width="11" height="11" rx="2" fill="transparent" stroke="#8F7BE8" stroke-width="0.8"/><rect x="301" y="110" width="11" height="11" rx="2" fill="transparent" stroke="#8F7BE8" stroke-width="0.8"/><rect x="314" y="32" width="11" height="11" rx="2" fill="transparent" stroke="#8F7BE8" stroke-width="0.8"/><rect x="314" y="45" width="11" height="11" rx="2" fill="transparent" stroke="#8F7BE8" stroke-width="0.8"/><rect x="314" y="58" width="11" height="11" rx="2" fill="transparent" stroke="#8F7BE8" stroke-width="0.8"/><rect x="314" y="71" width="11" height="11" rx="2" fill="transparent" stroke="#8F7BE8" stroke-width="0.8"/><g transform="translate(319.5,89.5)"><ellipse cx="0" cy="-3.2" rx="2.2" ry="3.5" fill="#FFD6E7" transform="rotate(0)"/><ellipse cx="0" cy="-3.2" rx="2.2" ry="3.5" fill="#FFD6E7" transform="rotate(72)"/><ellipse cx="0" cy="-3.2" rx="2.2" ry="3.5" fill="#FFD6E7" transform="rotate(144)"/><ellipse cx="0" cy="-3.2" rx="2.2" ry="3.5" fill="#FFD6E7" transform="rotate(216)"/><ellipse cx="0" cy="-3.2" rx="2.2" ry="3.5" fill="#FFD6E7" transform="rotate(288)"/><circle cx="0" cy="0" r="1.8" fill="#FFE8A8"/></g><rect x="314" y="97" width="11" height="11" rx="2" fill="transparent" stroke="#8F7BE8" stroke-width="0.8"/><rect x="314" y="110" width="11" height="11" rx="2" fill="transparent" stroke="#8F7BE8" stroke-width="0.8"/><rect x="327" y="32" width="11" height="11" rx="2" fill="transparent" stroke="#8F7BE8" stroke-width="0.8"/><rect x="327" y="45" width="11" height="11" rx="2" fill="transparent" stroke="#8F7BE8" stroke-width="0.8"/><rect x="327" y="58" width="11" height="11" rx="2" fill="transparent" stroke="#8F7BE8" stroke-width="0.8"/><rect x="327" y="71" width="11" height="11" rx="2" fill="transparent" stroke="#8F7BE8" stroke-width="0.8"/><rect x="327" y="84" width="11" height="11" rx="2" fill="transparent" stroke="#8F7BE8" stroke-width="0.8"/><rect x="327" y="97" width="11" height="11" rx="2" fill="transparent" stroke="#8F7BE8" stroke-width="0.8"/><rect x="327" y="110" width="11" height="11" rx="2" fill="transparent" stroke="#8F7BE8" stroke-width="0.8"/><rect x="340" y="32" width="11" height="11" rx="2" fill="transparent" stroke="#8F7BE8" stroke-width="0.8"/><rect x="340" y="45" width="11" height="11" rx="2" fill="transparent" stroke="#8F7BE8" stroke-width="0.8"/><rect x="340" y="58" width="11" height="11" rx="2" fill="transparent" stroke="#8F7BE8" stroke-width="0.8"/><rect x="340" y="71" width="11" height="11" rx="2" fill="transparent" stroke="#8F7BE8" stroke-width="0.8"/><rect x="340" y="84" width="11" height="11" rx="2" fill="transparent" stroke="#8F7BE8" stroke-width="0.8"/><rect x="340" y="97" width="11" height="11" rx="2" fill="transparent" stroke="#8F7BE8" stroke-width="0.8"/><rect x="340" y="110" width="11" height="11" rx="2" fill="transparent" stroke="#8F7BE8" stroke-width="0.8"/><rect x="353" y="32" width="11" height="11" rx="2" fill="transparent" stroke="#8F7BE8" stroke-width="0.8"/><rect x="353" y="45" width="11" height="11" rx="2" fill="transparent" stroke="#8F7BE8" stroke-width="0.8"/><rect x="353" y="58" width="11" height="11" rx="2" fill="transparent" stroke="#8F7BE8" stroke-width="0.8"/><rect x="353" y="71" width="11" height="11" rx="2" fill="transparent" stroke="#8F7BE8" stroke-width="0.8"/><rect x="353" y="84" width="11" height="11" rx="2" fill="transparent" stroke="#8F7BE8" stroke-width="0.8"/><rect x="353" y="97" width="11" height="11" rx="2" fill="transparent" stroke="#8F7BE8" stroke-width="0.8"/><rect x="353" y="110" width="11" height="11" rx="2" fill="transparent" stroke="#8F7BE8" stroke-width="0.8"/><rect x="366" y="32" width="11" height="11" rx="2" fill="transparent" stroke="#8F7BE8" stroke-width="0.8"/><rect x="366" y="45" width="11" height="11" rx="2" fill="transparent" stroke="#8F7BE8" stroke-width="0.8"/><rect x="366" y="58" width="11" height="11" rx="2" fill="transparent" stroke="#8F7BE8" stroke-width="0.8"/><rect x="366" y="71" width="11" height="11" rx="2" fill="transparent" stroke="#8F7BE8" stroke-width="0.8"/><rect x="366" y="84" width="11" height="11" rx="2" fill="transparent" stroke="#8F7BE8" stroke-width="0.8"/><rect x="366" y="97" width="11" height="11" rx="2" fill="transparent" stroke="#8F7BE8" stroke-width="0.8"/><rect x="366" y="110" width="11" height="11" rx="2" fill="transparent" stroke="#8F7BE8" stroke-width="0.8"/><rect x="379" y="32" width="11" height="11" rx="2" fill="transparent" stroke="#8F7BE8" stroke-width="0.8"/><rect x="379" y="45" width="11" height="11" rx="2" fill="transparent" stroke="#8F7BE8" stroke-width="0.8"/><rect x="379" y="58" width="11" height="11" rx="2" fill="transparent" stroke="#8F7BE8" stroke-width="0.8"/><rect x="379" y="71" width="11" height="11" rx="2" fill="transparent" stroke="#8F7BE8" stroke-width="0.8"/><rect x="379" y="84" width="11" height="11" rx="2" fill="transparent" stroke="#8F7BE8" stroke-width="0.8"/><rect x="379" y="97" width="11" height="11" rx="2" fill="transparent" stroke="#8F7BE8" stroke-width="0.8"/><rect x="379" y="110" width="11" height="11" rx="2" fill="transparent" stroke="#8F7BE8" stroke-width="0.8"/><rect x="392" y="32" width="11" height="11" rx="2" fill="transparent" stroke="#8F7BE8" stroke-width="0.8"/><rect x="392" y="45" width="11" height="11" rx="2" fill="transparent" stroke="#8F7BE8" stroke-width="0.8"/><rect x="392" y="58" width="11" height="11" rx="2" fill="transparent" stroke="#8F7BE8" stroke-width="0.8"/><rect x="392" y="71" width="11" height="11" rx="2" fill="transparent" stroke="#8F7BE8" stroke-width="0.8"/><rect x="392" y="84" width="11" height="11" rx="2" fill="transparent" stroke="#8F7BE8" stroke-width="0.8"/><rect x="392" y="97" width="11" height="11" rx="2" fill="transparent" stroke="#8F7BE8" stroke-width="0.8"/><rect x="392" y="110" width="11" height="11" rx="2" fill="transparent" stroke="#8F7BE8" stroke-width="0.8"/><rect x="405" y="32" width="11" height="11" rx="2" fill="transparent" stroke="#8F7BE8" stroke-width="0.8"/><rect x="405" y="45" width="11" height="11" rx="2" fill="transparent" stroke="#8F7BE8" stroke-width="0.8"/><rect x="405" y="58" width="11" height="11" rx="2" fill="transparent" stroke="#8F7BE8" stroke-width="0.8"/><rect x="405" y="71" width="11" height="11" rx="2" fill="transparent" stroke="#8F7BE8" stroke-width="0.8"/><rect x="405" y="84" width="11" height="11" rx="2" fill="transparent" stroke="#8F7BE8" stroke-width="0.8"/><rect x="405" y="97" width="11" height="11" rx="2" fill="transparent" stroke="#8F7BE8" stroke-width="0.8"/><rect x="405" y="110" width="11" height="11" rx="2" fill="transparent" stroke="#8F7BE8" stroke-width="0.8"/><rect x="418" y="32" width="11" height="11" rx="2" fill="transparent" stroke="#8F7BE8" stroke-width="0.8"/><rect x="418" y="45" width="11" height="11" rx="2" fill="transparent" stroke="#8F7BE8" stroke-width="0.8"/><rect x="418" y="58" width="11" height="11" rx="2" fill="transparent" stroke="#8F7BE8" stroke-width="0.8"/><rect x="418" y="71" width="11" height="11" rx="2" fill="transparent" stroke="#8F7BE8" stroke-width="0.8"/><rect x="418" y="84" width="11" height="11" rx="2" fill="transparent" stroke="#8F7BE8" stroke-width="0.8"/><rect x="418" y="97" width="11" height="11" rx="2" fill="transparent" stroke="#8F7BE8" stroke-width="0.8"/><rect x="418" y="110" width="11" height="11" rx="2" fill="transparent" stroke="#8F7BE8" stroke-width="0.8"/><rect x="431" y="32" width="11" height="11" rx="2" fill="transparent" stroke="#8F7BE8" stroke-width="0.8"/><rect x="431" y="45" width="11" height="11" rx="2" fill="transparent" stroke="#8F7BE8" stroke-width="0.8"/><rect x="431" y="58" width="11" height="11" rx="2" fill="transparent" stroke="#8F7BE8" stroke-width="0.8"/><rect x="431" y="71" width="11" height="11" rx="2" fill="transparent" stroke="#8F7BE8" stroke-width="0.8"/><rect x="431" y="84" width="11" height="11" rx="2" fill="transparent" stroke="#8F7BE8" stroke-width="0.8"/><rect x="431" y="97" width="11" height="11" rx="2" fill="transparent" stroke="#8F7BE8" stroke-width="0.8"/><rect x="431" y="110" width="11" height="11" rx="2" fill="transparent" stroke="#8F7BE8" stroke-width="0.8"/><rect x="444" y="32" width="11" height="11" rx="2" fill="transparent" stroke="#8F7BE8" stroke-width="0.8"/><rect x="444" y="45" width="11" height="11" rx="2" fill="transparent" stroke="#8F7BE8" stroke-width="0.8"/><rect x="444" y="58" width="11" height="11" rx="2" fill="transparent" stroke="#8F7BE8" stroke-width="0.8"/><rect x="444" y="71" width="11" height="11" rx="2" fill="transparent" stroke="#8F7BE8" stroke-width="0.8"/><rect x="444" y="84" width="11" height="11" rx="2" fill="transparent" stroke="#8F7BE8" stroke-width="0.8"/><rect x="444" y="97" width="11" height="11" rx="2" fill="transparent" stroke="#8F7BE8" stroke-width="0.8"/><rect x="444" y="110" width="11" height="11" rx="2" fill="transparent" stroke="#8F7BE8" stroke-width="0.8"/><rect x="457" y="32" width="11" height="11" rx="2" fill="transparent" stroke="#8F7BE8" stroke-width="0.8"/><rect x="457" y="45" width="11" height="11" rx="2" fill="transparent" stroke="#8F7BE8" stroke-width="0.8"/><rect x="457" y="58" width="11" height="11" rx="2" fill="transparent" stroke="#8F7BE8" stroke-width="0.8"/><rect x="457" y="71" width="11" height="11" rx="2" fill="transparent" stroke="#8F7BE8" stroke-width="0.8"/><rect x="457" y="84" width="11" height="11" rx="2" fill="transparent" stroke="#8F7BE8" stroke-width="0.8"/><rect x="457" y="97" width="11" height="11" rx="2" fill="transparent" stroke="#8F7BE8" stroke-width="0.8"/><rect x="457" y="110" width="11" height="11" rx="2" fill="transparent" stroke="#8F7BE8" stroke-width="0.8"/><rect x="470" y="32" width="11" height="11" rx="2" fill="transparent" stroke="#8F7BE8" stroke-width="0.8"/><rect x="470" y="45" width="11" height="11" rx="2" fill="transparent" stroke="#8F7BE8" stroke-width="0.8"/><rect x="470" y="58" width="11" height="11" rx="2" fill="transparent" stroke="#8F7BE8" stroke-width="0.8"/><rect x="470" y="71" width="11" height="11" rx="2" fill="transparent" stroke="#8F7BE8" stroke-width="0.8"/><rect x="470" y="84" width="11" height="11" rx="2" fill="transparent" stroke="#8F7BE8" stroke-width="0.8"/><rect x="470" y="97" width="11" height="11" rx="2" fill="transparent" stroke="#8F7BE8" stroke-width="0.8"/><rect x="470" y="110" width="11" height="11" rx="2" fill="transparent" stroke="#8F7BE8" stroke-width="0.8"/><rect x="483" y="32" width="11" height="11" rx="2" fill="transparent" stroke="#8F7BE8" stroke-width="0.8"/><rect x="483" y="45" width="11" height="11" rx="2" fill="transparent" stroke="#8F7BE8" stroke-width="0.8"/><rect x="483" y="58" width="11" height="11" rx="2" fill="transparent" stroke="#8F7BE8" stroke-width="0.8"/><rect x="483" y="71" width="11" height="11" rx="2" fill="transparent" stroke="#8F7BE8" stroke-width="0.8"/><rect x="483" y="84" width="11" height="11" rx="2" fill="transparent" stroke="#8F7BE8" stroke-width="0.8"/><rect x="483" y="97" width="11" height="11" rx="2" fill="transparent" stroke="#8F7BE8" stroke-width="0.8"/><rect x="483" y="110" width="11" height="11" rx="2" fill="transparent" stroke="#8F7BE8" stroke-width="0.8"/><rect x="496" y="32" width="11" height="11" rx="2" fill="transparent" stroke="#8F7BE8" stroke-width="0.8"/><rect x="496" y="45" width="11" height="11" rx="2" fill="transparent" stroke="#8F7BE8" stroke-width="0.8"/><rect x="496" y="58" width="11" height="11" rx="2" fill="transparent" stroke="#8F7BE8" stroke-width="0.8"/><rect x="496" y="71" width="11" height="11" rx="2" fill="transparent" stroke="#8F7BE8" stroke-width="0.8"/><rect x="496" y="84" width="11" height="11" rx="2" fill="transparent" stroke="#8F7BE8" stroke-width="0.8"/><rect x="496" y="97" width="11" height="11" rx="2" fill="transparent" stroke="#8F7BE8" stroke-width="0.8"/><rect x="496" y="110" width="11" height="11" rx="2" fill="transparent" stroke="#8F7BE8" stroke-width="0.8"/><rect x="509" y="32" width="11" height="11" rx="2" fill="transparent" stroke="#8F7BE8" stroke-width="0.8"/><rect x="509" y="45" width="11" height="11" rx="2" fill="transparent" stroke="#8F7BE8" stroke-width="0.8"/><rect x="509" y="58" width="11" height="11" rx="2" fill="transparent" stroke="#8F7BE8" stroke-width="0.8"/><rect x="509" y="71" width="11" height="11" rx="2" fill="transparent" stroke="#8F7BE8" stroke-width="0.8"/><rect x="509" y="84" width="11" height="11" rx="2" fill="transparent" stroke="#8F7BE8" stroke-width="0.8"/><rect x="509" y="97" width="11" height="11" rx="2" fill="transparent" stroke="#8F7BE8" stroke-width="0.8"/><rect x="509" y="110" width="11" height="11" rx="2" fill="transparent" stroke="#8F7BE8" stroke-width="0.8"/><rect x="522" y="32" width="11" height="11" rx="2" fill="transparent" stroke="#8F7BE8" stroke-width="0.8"/><rect x="522" y="45" width="11" height="11" rx="2" fill="transparent" stroke="#8F7BE8" stroke-width="0.8"/><rect x="522" y="58" width="11" height="11" rx="2" fill="transparent" stroke="#8F7BE8" stroke-width="0.8"/><rect x="522" y="71" width="11" height="11" rx="2" fill="transparent" stroke="#8F7BE8" stroke-width="0.8"/><rect x="522" y="84" width="11" height="11" rx="2" fill="transparent" stroke="#8F7BE8" stroke-width="0.8"/><rect x="522" y="97" width="11" height="11" rx="2" fill="transparent" stroke="#8F7BE8" stroke-width="0.8"/><rect x="522" y="110" width="11" height="11" rx="2" fill="transparent" stroke="#8F7BE8" stroke-width="0.8"/><rect x="535" y="32" width="11" height="11" rx="2" fill="transparent" stroke="#8F7BE8" stroke-width="0.8"/><rect x="535" y="45" width="11" height="11" rx="2" fill="transparent" stroke="#8F7BE8" stroke-width="0.8"/><rect x="535" y="58" width="11" height="11" rx="2" fill="transparent" stroke="#8F7BE8" stroke-width="0.8"/><rect x="535" y="71" width="11" height="11" rx="2" fill="transparent" stroke="#8F7BE8" stroke-width="0.8"/><rect x="535" y="84" width="11" height="11" rx="2" fill="transparent" stroke="#8F7BE8" stroke-width="0.8"/><rect x="535" y="97" width="11" height="11" rx="2" fill="transparent" stroke="#8F7BE8" stroke-width="0.8"/><rect x="535" y="110" width="11" height="11" rx="2" fill="transparent" stroke="#8F7BE8" stroke-width="0.8"/><rect x="548" y="32" width="11" height="11" rx="2" fill="transparent" stroke="#8F7BE8" stroke-width="0.8"/><rect x="548" y="45" width="11" height="11" rx="2" fill="transparent" stroke="#8F7BE8" stroke-width="0.8"/><rect x="548" y="58" width="11" height="11" rx="2" fill="transparent" stroke="#8F7BE8" stroke-width="0.8"/><rect x="548" y="71" width="11" height="11" rx="2" fill="transparent" stroke="#8F7BE8" stroke-width="0.8"/><rect x="548" y="84" width="11" height="11" rx="2" fill="transparent" stroke="#8F7BE8" stroke-width="0.8"/><rect x="548" y="97" width="11" height="11" rx="2" fill="transparent" stroke="#8F7BE8" stroke-width="0.8"/><rect x="548" y="110" width="11" height="11" rx="2" fill="transparent" stroke="#8F7BE8" stroke-width="0.8"/><rect x="561" y="32" width="11" height="11" rx="2" fill="transparent" stroke="#8F7BE8" stroke-width="0.8"/><rect x="561" y="45" width="11" height="11" rx="2" fill="transparent" stroke="#8F7BE8" stroke-width="0.8"/><rect x="561" y="58" width="11" height="11" rx="2" fill="transparent" stroke="#8F7BE8" stroke-width="0.8"/><rect x="561" y="71" width="11" height="11" rx="2" fill="transparent" stroke="#8F7BE8" stroke-width="0.8"/><rect x="561" y="84" width="11" height="11" rx="2" fill="transparent" stroke="#8F7BE8" stroke-width="0.8"/><rect x="561" y="97" width="11" height="11" rx="2" fill="transparent" stroke="#8F7BE8" stroke-width="0.8"/><rect x="561" y="110" width="11" height="11" rx="2" fill="transparent" stroke="#8F7BE8" stroke-width="0.8"/><rect x="574" y="32" width="11" height="11" rx="2" fill="transparent" stroke="#8F7BE8" stroke-width="0.8"/><rect x="574" y="45" width="11" height="11" rx="2" fill="transparent" stroke="#8F7BE8" stroke-width="0.8"/><rect x="574" y="58" width="11" height="11" rx="2" fill="transparent" stroke="#8F7BE8" stroke-width="0.8"/><rect x="574" y="71" width="11" height="11" rx="2" fill="transparent" stroke="#8F7BE8" stroke-width="0.8"/><rect x="574" y="84" width="11" height="11" rx="2" fill="transparent" stroke="#8F7BE8" stroke-width="0.8"/><rect x="574" y="97" width="11" height="11" rx="2" fill="transparent" stroke="#8F7BE8" stroke-width="0.8"/><rect x="574" y="110" width="11" height="11" rx="2" fill="transparent" stroke="#8F7BE8" stroke-width="0.8"/><rect x="587" y="32" width="11" height="11" rx="2" fill="transparent" stroke="#8F7BE8" stroke-width="0.8"/><rect x="587" y="45" width="11" height="11" rx="2" fill="transparent" stroke="#8F7BE8" stroke-width="0.8"/><rect x="587" y="58" width="11" height="11" rx="2" fill="transparent" stroke="#8F7BE8" stroke-width="0.8"/><rect x="587" y="71" width="11" height="11" rx="2" fill="transparent" stroke="#8F7BE8" stroke-width="0.8"/><rect x="587" y="84" width="11" height="11" rx="2" fill="transparent" stroke="#8F7BE8" stroke-width="0.8"/><rect x="587" y="97" width="11" height="11" rx="2" fill="transparent" stroke="#8F7BE8" stroke-width="0.8"/><rect x="587" y="110" width="11" height="11" rx="2" fill="transparent" stroke="#8F7BE8" stroke-width="0.8"/><rect x="600" y="32" width="11" height="11" rx="2" fill="transparent" stroke="#8F7BE8" stroke-width="0.8"/><rect x="600" y="45" width="11" height="11" rx="2" fill="transparent" stroke="#8F7BE8" stroke-width="0.8"/><rect x="600" y="58" width="11" height="11" rx="2" fill="transparent" stroke="#8F7BE8" stroke-width="0.8"/><rect x="600" y="71" width="11" height="11" rx="2" fill="transparent" stroke="#8F7BE8" stroke-width="0.8"/><rect x="600" y="84" width="11" height="11" rx="2" fill="transparent" stroke="#8F7BE8" stroke-width="0.8"/><rect x="600" y="97" width="11" height="11" rx="2" fill="transparent" stroke="#8F7BE8" stroke-width="0.8"/><rect x="600" y="110" width="11" height="11" rx="2" fill="transparent" stroke="#8F7BE8" stroke-width="0.8"/><rect x="613" y="32" width="11" height="11" rx="2" fill="transparent" stroke="#8F7BE8" stroke-width="0.8"/><rect x="613" y="45" width="11" height="11" rx="2" fill="transparent" stroke="#8F7BE8" stroke-width="0.8"/><rect x="613" y="58" width="11" height="11" rx="2" fill="transparent" stroke="#8F7BE8" stroke-width="0.8"/><rect x="613" y="71" width="11" height="11" rx="2" fill="transparent" stroke="#8F7BE8" stroke-width="0.8"/><rect x="613" y="84" width="11" height="11" rx="2" fill="transparent" stroke="#8F7BE8" stroke-width="0.8"/><rect x="613" y="97" width="11" height="11" rx="2" fill="transparent" stroke="#8F7BE8" stroke-width="0.8"/><rect x="613" y="110" width="11" height="11" rx="2" fill="transparent" stroke="#8F7BE8" stroke-width="0.8"/><rect x="626" y="32" width="11" height="11" rx="2" fill="transparent" stroke="#8F7BE8" stroke-width="0.8"/><rect x="626" y="45" width="11" height="11" rx="2" fill="transparent" stroke="#8F7BE8" stroke-width="0.8"/><rect x="626" y="58" width="11" height="11" rx="2" fill="transparent" stroke="#8F7BE8" stroke-width="0.8"/><rect x="626" y="71" width="11" height="11" rx="2" fill="transparent" stroke="#8F7BE8" stroke-width="0.8"/><rect x="626" y="84" width="11" height="11" rx="2" fill="transparent" stroke="#8F7BE8" stroke-width="0.8"/><rect x="626" y="97" width="11" height="11" rx="2" fill="transparent" stroke="#8F7BE8" stroke-width="0.8"/><rect x="626" y="110" width="11" height="11" rx="2" fill="transparent" stroke="#8F7BE8" stroke-width="0.8"/><rect x="639" y="32" width="11" height="11" rx="2" fill="transparent" stroke="#8F7BE8" stroke-width="0.8"/><rect x="639" y="45" width="11" height="11" rx="2" fill="transparent" stroke="#8F7BE8" stroke-width="0.8"/><rect x="639" y="58" width="11" height="11" rx="2" fill="transparent" stroke="#8F7BE8" stroke-width="0.8"/><rect x="639" y="71" width="11" height="11" rx="2" fill="transparent" stroke="#8F7BE8" stroke-width="0.8"/><rect x="639" y="84" width="11" height="11" rx="2" fill="transparent" stroke="#8F7BE8" stroke-width="0.8"/><rect x="639" y="97" width="11" height="11" rx="2" fill="transparent" stroke="#8F7BE8" stroke-width="0.8"/><rect x="639" y="110" width="11" height="11" rx="2" fill="transparent" stroke="#8F7BE8" stroke-width="0.8"/><rect x="652" y="32" width="11" height="11" rx="2" fill="transparent" stroke="#8F7BE8" stroke-width="0.8"/><g transform="translate(657.5,50.5)"><ellipse cx="0" cy="-3.2" rx="2.2" ry="3.5" fill="#FF8FBE" transform="rotate(0)"/><ellipse cx="0" cy="-3.2" rx="2.2" ry="3.5" fill="#FF8FBE" transform="rotate(72)"/><ellipse cx="0" cy="-3.2" rx="2.2" ry="3.5" fill="#FF8FBE" transform="rotate(144)"/><ellipse cx="0" cy="-3.2" rx="2.2" ry="3.5" fill="#FF8FBE" transform="rotate(216)"/><ellipse cx="0" cy="-3.2" rx="2.2" ry="3.5" fill="#FF8FBE" transform="rotate(288)"/><circle cx="0" cy="0" r="1.8" fill="#FFC857"/></g><g transform="translate(657.5,63.5)"><ellipse cx="0" cy="-3.2" rx="2.2" ry="3.5" fill="#FFD6E7" transform="rotate(0)"/><ellipse cx="0" cy="-3.2" rx="2.2" ry="3.5" fill="#FFD6E7" transform="rotate(72)"/><ellipse cx="0" cy="-3.2" rx="2.2" ry="3.5" fill="#FFD6E7" transform="rotate(144)"/><ellipse cx="0" cy="-3.2" rx="2.2" ry="3.5" fill="#FFD6E7" transform="rotate(216)"/><ellipse cx="0" cy="-3.2" rx="2.2" ry="3.5" fill="#FFD6E7" transform="rotate(288)"/><circle cx="0" cy="0" r="1.8" fill="#FFE8A8"/></g><rect x="652" y="71" width="11" height="11" rx="2" fill="transparent" stroke="#8F7BE8" stroke-width="0.8"/><rect x="652" y="84" width="11" height="11" rx="2" fill="transparent" stroke="#8F7BE8" stroke-width="0.8"/><rect x="652" y="97" width="11" height="11" rx="2" fill="transparent" stroke="#8F7BE8" stroke-width="0.8"/><rect x="652" y="110" width="11" height="11" rx="2" fill="transparent" stroke="#8F7BE8" stroke-width="0.8"/><rect x="665" y="32" width="11" height="11" rx="2" fill="transparent" stroke="#8F7BE8" stroke-width="0.8"/><rect x="665" y="45" width="11" height="11" rx="2" fill="transparent" stroke="#8F7BE8" stroke-width="0.8"/><rect x="665" y="58" width="11" height="11" rx="2" fill="transparent" stroke="#8F7BE8" stroke-width="0.8"/><rect x="665" y="71" width="11" height="11" rx="2" fill="transparent" stroke="#8F7BE8" stroke-width="0.8"/><rect x="665" y="84" width="11" height="11" rx="2" fill="transparent" stroke="#8F7BE8" stroke-width="0.8"/><rect x="665" y="97" width="11" height="11" rx="2" fill="transparent" stroke="#8F7BE8" stroke-width="0.8"/><rect x="665" y="110" width="11" height="11" rx="2" fill="transparent" stroke="#8F7BE8" stroke-width="0.8"/><rect x="678" y="32" width="11" height="11" rx="2" fill="transparent" stroke="#8F7BE8" stroke-width="0.8"/><rect x="678" y="45" width="11" height="11" rx="2" fill="transparent" stroke="#8F7BE8" stroke-width="0.8"/><rect x="678" y="58" width="11" height="11" rx="2" fill="transparent" stroke="#8F7BE8" stroke-width="0.8"/><rect x="678" y="71" width="11" height="11" rx="2" fill="transparent" stroke="#8F7BE8" stroke-width="0.8"/><rect x="678" y="84" width="11" height="11" rx="2" fill="transparent" stroke="#8F7BE8" stroke-width="0.8"/><rect x="678" y="97" width="11" height="11" rx="2" fill="transparent" stroke="#8F7BE8" stroke-width="0.8"/><rect x="678" y="110" width="11" height="11" rx="2" fill="transparent" stroke="#8F7BE8" stroke-width="0.8"/><rect x="691" y="32" width="11" height="11" rx="2" fill="transparent" stroke="#8F7BE8" stroke-width="0.8"/><rect x="691" y="45" width="11" height="11" rx="2" fill="transparent" stroke="#8F7BE8" stroke-width="0.8"/><rect x="691" y="58" width="11" height="11" rx="2" fill="transparent" stroke="#8F7BE8" stroke-width="0.8"/><rect x="691" y="71" width="11" height="11" rx="2" fill="transparent" stroke="#8F7BE8" stroke-width="0.8"/><rect x="691" y="84" width="11" height="11" rx="2" fill="transparent" stroke="#8F7BE8" stroke-width="0.8"/><rect x="691" y="97" width="11" height="11" rx="2" fill="transparent" stroke="#8F7BE8" stroke-width="0.8"/><rect x="691" y="110" width="11" height="11" rx="2" fill="transparent" stroke="#8F7BE8" stroke-width="0.8"/><rect x="704" y="32" width="11" height="11" rx="2" fill="transparent" stroke="#8F7BE8" stroke-width="0.8"/>
</svg>